<svg xmlns="http://www.w3.org/2000/svg" viewBox="-0.62 424.61 229.24 171.27">
<path fill="black" d="m 15.8,572 h 2.4 l .7,.7 -1,1.2 -1.9,.2 -2.5,1.3 -3.7,-.1 2.2,-.9 .3,-1.1 2.5,-.3 z m 8.3,-1.7 1.3,.5 h .9 l .5,1.2 .3,-.6 .9,.2 1.1,1.5 0,.5 -4.2,1.9 -2.4,-.1 -1,-.5 -1.1,.7 -2,0 -1.1,-1.4 4.7,-.5 z m 5.4,-.1 1,.1 .7,.7 v 1 l -1.3,.1 -.9,-1.1 z m 2.5,.3 1.3,-.1 -.1,1 -1.1,.6 z m .3,2.2 3.4,-.1 .2,1.1 -1.3,.1 -.3,-.5 -.8,.6 -.4,-.6 -.9,-.2 z m 166.3,7.6 2.1,.1 -1,1.9 -1.1,-.1 -.4,-.8 .5,-1.3 m -1.1,-2.9 .6,-1.3 -.2,-2.3 2.4,-.5 4.5,4.4 1.3,3.4 1.9,1.6 .3,5.1 -1.4,0 -1.3,-2.3 -3.1,-2.4 h -.6 l 1.1,2.8 1.7,.2 .2,2.1 -.9,.1 -4.1,-4.4 -.1,-.9 1.9,-1 0,-1 -.5,-.8 -1.6,-.6 -1.7,-1.3 1.4,.1 .5,-.4 -.6,-.9 -.6,.5 z m -3.6,-9.1 1.3,.1 2.4,2.5 -.2,.8 -.8,-.1 -.1,1.8 .5,.5 0,1.5 -.8,.3 -.4,1.2 -.8,-.4 -.4,-2.2 1.1,-1.4 -2.1,-2.2 .1,-1.2 z m 1.5,-1.5 1.9,.2 2.5,.1 3.4,3.2 -.2,.5 -1.1,.6 -1.1,-.2 -.1,-.7 -1.2,-1.6 -.3,.7 1,1.3 -.2,1.2 -.8,-.1 -1.3,.2 -.1,-1.7 -2.6,-2.8 z m -12.7,-8.9 .9,-.4 h 1.6 l .7,-.5 4.1,2.2 .1,1.5 -.5,.5 h -.8 l -1.4,-.7 1.1,1.3 1.8,0 .5,2 -.9,0 -2.2,-1.5 -1.1,-.2 .6,1.3 .1,.9 .8,-.6 1.7,1.2 1.3,-.1 -.2,.8 1.9,4.3 0,3.4 .4,2.1 -.8,.3 -1.2,-2 -.5,-1.5 -1.6,-1.6 -.2,-2.7 -.6,-1.7 h -.7 l .3,1.1 0,.5 -1.4,1 .1,-3.3 -1.6,-1.6 -1.3,-2.3 -1.2,-1.2 z m 7.2,-2.3 1.1,1.8 2.4,-.1 1,2.1 -.6,.6 2,3.2 v 1.3 l -1.2,.8 v .7 l -2,1.9 -.5,-1.4 -.1,-1.3 .6,-.7 v -1.1 l -1.5,-1.9 -.5,-3.7 -.9,-1.5 z m -56.7,-18.3 -4,4.1 v 1.6 l 2.1,-.8 .8,-1.9 2.2,-2.4 z m -31.6,16.6 0,.6 1.8,1.2 .2,-1.4 .6,.9 3.5,.1 .7,-.6 .2,-1.8 -.5,-.7 -1.4,0 0,-.8 .4,-.6 v -.4 l -1.5,-.3 -3.3,3.6 z m -8.1,6.2 1.5,5.8 h 2.1 l 2.4,-2.5 .3,1.2 6.3,-4 .7,-1 -1,-1.1 v -.7 l .5,-1.3 -.9,-.1 -2,1 0,-1.2 -2.7,-.6 -2.4,.3 -.2,3.4 -.8,-2 -1.5,-.1 -1,.6 z m -2.2,8.2 .1,-.7 2.1,-1.3 .6,.3 1.3,.2 1.3,1.2 -2.2,-.2 -.4,-.6 -1,.6 z m -5.2,3.3 -1.1,.8 1.5,1.4 .8,-.7 -.1,-1.3 z m -6.3,-7.9 1.4,.1 .4,.6 -1.8,.1 z m -13.9,11.9 v .5 l .7,.1 -.1,-.6 z m -.4,-3.2 -1,1 v .5 l .7,1.1 1,-1 -.7,-.1 z m -2,-.8 -.3,1 -1.3,.1 -.4,.2 0,1.3 -.5,.9 .6,0 .7,-.9 .8,-.1 .9,-1 .2,-1.3 z m -4.4,-2 -.2,1.8 1.4,.8 1.2,-.6 0,-1 1.7,-.3 -.1,-.6 -.9,-.2 -.7,.6 -.9,-.5 z m -4.9,-.1 1,.7 -.3,1.2 -1.4,-1.1 z m -4.2,1.3 1.4,.1 -.7,.8 z m -3.5,3 1.8,1.1 -1.7,.1 z m -25.4,-31.2 1.2,.6 -.8,.6 z m -.7,-6.3 .4,1.2 .8,-1.2 z m 24.3,-19.3 1.5,-.1 .9,.4 1.1,-.5 1.3,-.1 1.6,.8 .8,1.9 -.1,.9 -1.2,2 -2.4,-.2 -2.1,-1.8 -1,-.4 -1.1,-2 z m -21.1,-14.4 .1,1.9 2,2 v .5 l -.8,-.2 -1.7,-.8 -.3,-1.1 -.3,-1.6 z m 18.3,-23.3 v 1.2 l 1.9,1.8 h 2.3 l .6,1.1 v 1.6 l 2.1,1.9 1.8,1.2 -.1,.7 -.7,1.1 -1.4,-1.2 -2.1,.1 -.8,-.8 -.9,-2.1 -1.5,-2.2 -2.6,-.1 -1,-.7 1,-2.1 z m 16.8,-4.5 1,0 .1,1.1 h -1 z m 16.2,19.7 .9,.1 0,1.2 -1.7,-.5 z m 127.8,77.7 -1.2,.4 -.1,1.1 h 1.2 z m -157.6,-4.5 -1.3,-.4 -4.1,.6 -2.8,1.4 -.1,1.9 1.9,.7 1.5,-.9 1.7,-.1 4.7,1.4 .1,-1.3 -1.6,-1.1 z m 2.1,2.3 -.4,-1.4 1.2,.2 .1,1.4 1.8,0 .4,-2.5 .3,2.4 2.5,-.1 3.2,-3.3 .8,.1 -.7,1.3 1.4,.9 4.2,-.2 2.6,-1.2 1.4,-.1 .3,1.5 .6,-.5 .4,-1.4 5.9,.2 1.9,-1.6 -1.3,-1.1 .6,-1.2 2.6,.2 -.2,-1.2 2.5,.2 .7,-1.1 1.1,.2 4.6,-1.9 .2,-1.7 5.6,-2.4 2,-1.9 1.2,-.6 1.3,.8 2.3,-.9 1.1,-1.9 .5,-1.3 1.7,-.9 1.5,-.7 .4,-1.4 -1.1,-1.7 -2.2,-.2 -.2,-1.3 .8,-1.6 1.4,-.2 1.3,-1.5 1.9,-.1 3.4,-3.2 .4,-1.4 1.5,-2.3 3.8,-4.1 2.5,-.9 1.9,-.9 2.1,.8 1.4,2.6 -1.5,0 -1.4,-1.5 -3,2 -1.7,.1 -.2,3.1 -3.1,4.9 .6,2 2.3,0 -.6,1 -1.4,.1 -2.4,1.8 0,.9 1.9,1 3.4,-.6 1.4,-1.7 1.4,.1 3,-1.7 .5,-2.3 1.6,-.1 6.3,.8 1,-1.1 1,-4.5 -1.6,1.1 .6,-2.2 -1.6,-1.4 .8,-1.5 .1,1.5 3.4,0 .7,-1 1.6,-.1 -.3,1.7 1.9,.1 -1.9,1.3 4.1,1.1 -3.5,.4 -1.3,1.2 .9,1.4 4.6,-1.7 2.3,1.7 .7,-.9 .6,1.4 4,2.3 h 2.9 l 3.9,-.5 4.3,1.1 2,1.9 4.5,.4 1.8,-1.5 .8,2.4 -1.8,.7 1.2,1.2 7.4,3.8 1.4,2.5 5.4,4.1 3.3,-2 -.6,-2.2 -3.5,-2 3.1,1.2 .5,-.7 .9,1.3 0,2.7 2.1,-.6 2.1,1.8 -2.5,-9.8 1.2,1.3 1.4,6 2.2,2.5 2.4,-.4 1.8,3.5 h .9 l .6,5.6 3.4,.5 1.6,2.2 1.8,1.1 .4,2.8 -1.8,2.6 2.9,1.6 1.2,-2.4 -.2,3.1 -.8,.9 1.4,1.7 .7,-2.4 -.2,-1.2 .8,.2 .6,2.3 -1,1.4 .6,2.6 .5,.4 .3,-1.6 .7,.6 -.3,2 1.2,.2 -.4,.9 1.7,-.1 0,-1 h -1 l .1,-1.7 -.8,-.6 1.7,-.3 .5,-.8 0,-1.6 .5,1.3 -.6,1.8 1.2,3.9 1.8,.1 2.2,-4.2 .1,-1.9 -1.3,-4 -.1,-1.2 .5,-1.2 -.7,-.7 -1.7,.1 -2.5,-2 -1.7,0 -2,-1.4 -1.5,0 -.5,-1.6 -1.4,-.3 -.2,-1.5 -1,-.5 .1,-1.7 -5.1,-7.4 -1.8,-1.5 v -1.2 l -4.3,-3.5 -.7,-1.1 -1.6,-2 -1.9,-.6 0,-2.2 -1.2,-1.3 -1.7,-.7 -2.1,1.3 -1.6,2.1 -.4,2.4 -1.5,.1 -2.5,2.7 -.8,-.3 v -2.5 l -2.4,-2.2 -2.3,-2 -.5,-2 -2.5,-1.3 .2,-2.2 -2.8,-.1 -.7,1.1 -1.2,0 -.7,-.7 -1.2,.8 -1.8,-1.2 0,-85.8 -6.9,-4.1 -1.8,-.5 -2.2,1.1 -2.2,.1 -2.3,-1.6 -4.3,-.6 -5.8,-3.6 -5.7,-.4 -2,.5 -.2,-1.8 -1.8,-.7 1.1,-1 -.2,-.9 -3.2,-1.1 h -2.4 l -.4,.4 -.9,-.6 .1,-2.6 -.8,-.9 -2.5,2.9 -.8,-.1 v -.8 l 1.7,-.8 v -.8 l -1.9,-2.4 -1.1,-.1 -4.5,3.1 h -3.9 l .4,-.9 -1.8,-.1 -5.2,3.4 -1.8,0 -.6,-.8 -2.7,1.5 -3.6,3.7 -2.8,2.7 -1.5,1.2  -2.6,.1 -2.2,-.4 -2.3,-1.3 v 0 l -2.8,3.9 -.1,2.4 2.6,2.4 2.1,4.5 .2,5.3 2.9,2 3.4,.4 .7,.8 -1.5,2.3 .7,2.7 -1.7,-2.6 v -2.4 l -1.5,-.3 .1,1.2 .7,2.1 2.9,3.7 h -1.4 l -2.2,1.1 -6.2,-2.5 -.1,-2 1.4,-1.3 0,-1.4 -2.1,-.5 -2.3,.2 -4.8,.2 1.5,2.3 -1.9,-1.8 -8.4,1.2 -.8,1.5 4.9,4.7 -.8,1.4 -.3,2 -.7,.8 -.1,1.9 4.4,3.6 4.1,.2 4.6,1.9 h 2 l .8,-.6 3.8,.1 .1,-.8 1.2,1.1 .1,2 -2.5,-.1 .1,3.3 .5,3.2 -2.9,2.7 -1.9,-.1 -2,-.8 -1,.1 -3.1,2.1 -1.7,.2 -1.4,-2.8 -3.1,0 -2.2,2 -.5,1.8 -3.3,1.8 -5.3,4.3 -.3,3.1 .7,2.2 1,1.2 1,-.4 .9,1 -.8,.6 -1.5,.9 1.1,1.5 -2.6,1.1 .8,2.2 1.7,2.3 .8,4.1 4,1.5 2.6,-.8 1.7,-1.1 .5,2.1 .3,4.4 -1.9,1.4 0,4.4 -.6,.9 h -1.7 l 1.7,1.2 2.1,-.1 .4,-1 4.6,-.6 2,2.6 1.3,-.7 1.3,5.1 1,.5 1,-.7 .1,-2.4 .9,-1 .7,1.1 .2,1.6 1.6,.4 4.7,-1.2 .2,1.2 -2,1.1 -1.6,1.7 -2.8,7 -4.3,2 -1.4,1.5 -.3,1.4 -1,-.6 -9.3,3.3 -1.8,4.1 -1.3,-.4 .5,-1.1 -1.5,-1.4 -3.5,-.2 -5.3,3.2 -2.2,1.3 -2.3,0 -.5,2.4 z M16.44,575.46L16.71,575.67L19.11,572.60L18.85,572.39Z M29.64,573.70L30.57,572.96L28.14,569.90L27.20,570.65Z M30.15,573.65L31.26,574.35L33.34,571.05L32.24,570.35Z M37.13,573.83L38.42,572.23L35.39,569.77L34.10,571.37Z M48.22,571.85L48.87,570.95L45.73,568.65L45.07,569.54Z M59.78,567.47L59.19,568.26L62.32,570.60L62.91,569.80Z M206.44,576.58L205.45,576.48L205.06,580.37L206.06,580.47Z M200.54,578.32L199.88,578.63L201.52,582.17L202.18,581.87Z M197.71,572.43L196.74,572.61L197.46,576.44L198.42,576.26Z M198.37,572.87L198.70,572.73L197.18,569.14L196.85,569.27Z M193.16,568.50L192.35,568.74L193.45,572.48L194.26,572.24Z M191.62,569.32L192.37,569.42L192.88,565.55L192.14,565.46Z M59.60,572.63L60.23,573.62L63.52,571.51L62.88,570.52Z M62.97,574.37L63.49,574.75L65.78,571.59L65.26,571.21Z M129.94,537.66L131.36,539.06L134.11,536.29L132.69,534.89Z M97.91,553.96L100.82,555.44L102.58,551.96L99.68,550.48Z M101.63,554.88L101.48,555.44L105.23,556.50L105.39,555.94Z M94.17,564.86L93.74,565.76L97.25,567.44L97.69,566.54Z M56.05,518.61L52.08,518.19L51.68,522.07L55.64,522.49Z M90.11,566.63L86.02,570.22L88.59,573.16L92.69,569.57Z M60.04,502.04L51.90,488.22L48.53,490.20L56.68,504.02Z M45.14,515.99L26.81,504.96L24.79,508.31L43.13,519.33Z"/>
</svg>
