<svg xmlns="http://www.w3.org/2000/svg" viewBox="500.06 330.41 97.57 87.78">
<path fill="black" d="m 584.2,367 .9,-2.2 1.2,.5 .7,-1 -.8,-.7 .3,-1.5 -1.1,-.9 .6,-1 -.1,-1.5 -1.1,-.1 .8,-.8 1.3,.8 .3,-1.4 -.4,-1.1 .1,-.7 2,.6 -.4,-1.5 1.6,-1.3 -.5,-.9 -1.1,.1 -.6,-.9 .9,-.9 1.6,-.2 .5,-.8 1.4,-.2 -.1,-.8 -.9,-.9 v -.5 h 1.5 l .4,-.7 -1.4,-1 -.1,-.6 -11.2,.8 2.8,-5.1 1.7,-1.5 v -2.2 l -1.6,-2.5 -39.8,2 -39.1,.7 4.1,24.4 -.7,39 2.6,2.3 2.8,-1.3 3.2,.8 .2,11.9 52.3,-1.3 1.2,-1.5 .5,-3 -1.5,-2.3 -.5,-2.2 .9,-.7 v -.8 l -1.7,-1.1 -.1,-.7 1.6,-.9 -1.2,-1.1 1.7,-7.1 3.4,-1.6 v -.8 l -1.1,-1.4 2.9,-5.4 h 1.9 l 1.5,-1.2 -.3,-5.2 3.1,-4.5 1.8,-.6 -.5,-3.1 z"/>
</svg>
