<svg xmlns="http://www.w3.org/2000/svg" viewBox="6.96 135.92 154.77 263.67">
<path fill="black" d="m 69.4,365.6 3.4,5.2 -1.4,.1 -1.8,-1.9 z m 1.9,-9.8 1.8,4.1 2.6,1 .7,-.6 -1.3,-2.5 -2.6,-2.4 z m -19.9,-19 v 2.4 l 2,1.2 4.4,-.2 1,-1 -3.1,-.2 z m -5.9,.1 3.3,.5 1.4,2.2 h -3.8 z m 47.9,45.5 -1,-3 .2,-3 -.4,-7.9 -1.8,-4.8 -1.2,-1.4 -.6,-1.5 -7,-8.6 -3.6,.1 -2,-1.9 1.1,-1.8 -.7,-3.7 -2.2,-1.2 -3.9,-.6 -2.8,-1.3 -1.5,-1.9 -4.5,-6.6 -2.7,-2.2 -3.7,-.5 -3.1,-2.3 -4.7,-1.5 -2.8,-.3 -2.5,-2.5 .2,-2.8 .8,-4.8 1.8,-5.1 -1.4,-1.6 -4,-9.4 -2.7,-3.7 -.4,-3 -1.6,-2.3 .2,-2.5 -2,-5 -2.9,-2.7 .6,-7.1 2.4,-.8 1.8,-3.1 -.4,-3.2 -1,-.9 h -2.5 l -2.5,-3.3 -1.5,-3.5 v -7.5 l 1.2,-4.2 .2,-2.1 2.5,.2 -.1,1.6 -.8,.7 v 2.5 l 3.7,3.2 v -4.7 l -1.4,-3.4 .5,-1.1 -1,-1.7 2.8,-1.5 -1.9,-3 -1.4,.5 -1.5,3.8 .5,1.3 -.8,1 -.9,-.1 -5.4,-6.1 .7,-5.6 -1.1,-3.9 -6.5,-12.8 .8,-10.7 2.3,-3.6 .2,-6.4 -5.5,-11.1 .3,-5.2 6.9,-7.5 1.7,-2.4 -.1,-1.4 4,-9.2 .1,-8.4 .9,-2.5 66.1,18.6 -16.4,63.1 1.1,3.5 70.4,105 -.9,2.1 1.3,3.4 1.4,1.8 1.2,5.8 2.3,2.5 .4,1.9 -1.3,1.3 -4.8,1.7 -2.4,3.6 -1.6,7 -2.4,3.2 -1.6,.3 -1.1,6.9 1.1,1.6 1.8,.2 1,1.6 -.8,2.4 -3,2.2 -2.2,-.1 z M71.10,366.80L75.05,361.19L71.64,358.79L67.70,364.40Z M76.55,359.22L81.95,353.69L78.97,350.77L73.56,356.30Z M56.35,330.89L55.72,338.97L59.88,339.30L60.51,331.21Z M50.63,337.17L49.40,337.66L50.93,341.54L52.17,341.05Z"/>
</svg>
