<svg xmlns="http://www.w3.org/2000/svg" viewBox="630.31 436.70 175.67 149.71">
<path fill="black" d="m 751.7,445.1 -4,-.7 -1.7,-.9 -2.2,1.4 v 2.5 l 1.4,2.1 -.5,4.3 -2.1,.6 -1,-1.1 -.6,-3.2 -50.1,3.3 -3.3,-6 -48.8,5.1 -.5,2.9 2.5,2.8 1.7,.7 .9,1.2 -.4,7.3 -1.1,.6 .5,.4 1,-.3 .7,-.8 10.5,-2.7 9.2,-.5 8.1,1.9 8.5,5 2.4,.8 2.2,2 -.1,2.7 h 2.4 l 1.9,-1 2.5,.1 2,-.8 2.9,-2 3.1,-2.9 1.1,-.4 .6,.5 h 1.4 l .5,-.8 -.5,-1.2 -.6,-.6 .2,-.8 2,-1.1 5,-.4 .8,1 1,.1 2.3,1 3,1.8 1.2,1.7 1.1,1.2 2.8,1.4 v 2.4 l 2.8,1.9 1,.1 1.6,1.4 .7,1.6 1,.2 .8,2.1 .7,.6 1,-1.1 2.9,.1 .5,1.4 1.1,.9 v 1.3 l 2.9,2.2 .2,9.6 -1.8,5.8 1,1.2 -.2,3.4 -.8,1.4 .7,1.2 2.3,2.3 .3,1.5 .8,1 -.4,-1.9 1.3,-.6 .8,-3.6 -3,-1.2 .1,-.6 2.6,-.4 .9,2.6 1.1,.6 .1,-2 1.1,.3 .6,.8 -.1,.7 -2.9,4.2 -.2,1.1 -1.7,1.9 v 1.1 l 3.7,3.8 5.3,7.9 1.8,2.1 v 1.8 l 2.8,4.6 2.3,.6 .7,-1.2 -2.1,.3 -3,-4.5 .2,-1.4 1.5,-.8 v -1.5 l -.6,-1.3 .9,-.9 .4,.9 .7,.5 v 4 l -1.2,-.6 -.8,.9 1.4,1.6 1,2.6 1.2,-.6 2.3,1.2 2.1,2.2 1.6,5.1 3.1,4.8 .8,-1.3 2.8,-.5 3.2,1.3 .3,1.7 3.3,3.8 .1,1.1 2.2,2.7 -.7,.5 v 2.7 l 2.7,1.4 h 1.5 l 2.7,-1.8 1.5,.3 1.1,.4 2.3,-1.7 .2,-.7 1.2,.3 2.4,-1.7 1.3,-2.3 -.7,-3.2 -.2,-1.3 1.1,-4 .6,-.2 .6,1.6 .8,-1.8 -.8,-7.2 -.4,-10.5 -1,-6.8 -.7,-1.7 -6.6,-11.1 -5.2,-9.1 -2.2,-3.3 -1.3,-3.6 -.2,-3.4 .9,-.3 v -.9 l -1.1,-2.2 -4,-4 -7.6,-9.7 -5.7,-10.4 -4.3,-10.7 -.6,-3.7 -1.2,-1 -.5,-3.8 z m 9.2,134.5 1.7,-.1 -.7,-1 z m 7.3,-1.1 v -.7 l 1.6,-.2 3.7,-3.3 1.5,-.6 2.4,-.9 .3,1.3 1.7,.8 -2.6,1.2 h -2.4 l -3.9,2.5 z m 17.2,-7.6 -3,1.4 -1,1.3 1.1,.1 z m 3.8,-2.9 -1.1,.3 -1.4,2 1.1,-.2 1.5,-1.6 z m 8.3,-15.7 -1.7,5.6 -.8,1 -1,2.6 -1.2,1.6 -.7,1.7 -1.9,2.2 v .9 l 2.7,-2.8 2.4,-3.5 .6,-2 2.1,-4.9 z M794.92,557.78L795.71,558.05L796.71,555.06L795.93,554.80Z M790.01,566.21L788.86,566.46L789.54,569.54L790.70,569.28Z M786.05,568.83L784.71,569.49L786.09,572.31L787.43,571.66Z M780.67,572.27L778.48,573.60L780.12,576.29L782.31,574.95Z"/>
</svg>
