<svg xmlns="http://www.w3.org/2000/svg" viewBox="661.84 350.24 104.72 109.12">
<path fill="black" d="m 761.8,414.1 v 1.4 l -4.2,6.2 -1.2,.2 1.5,.5 v 2 l -.9,1.1 -.6,6 -2.3,6.2 .5,2 .7,5.1 -3.6,.3 -4,-.7 -1.7,-.9 -2.2,1.4 v 2.5 l 1.4,2.1 -.5,4.3 -2.1,.6 -1,-1.1 -.6,-3.2 -50.1,3.3 -3.3,-6 -.7,-2.2 -1.5,-1.5 -.5,-1.4 .6,-6.3 -2.4,-5.7 .5,-2.6 .3,-3.7 2.2,-3.8 -.2,-1.1 -1.7,-1 v -3.2 l -1.8,-1.9 -2.9,-6.1 -12.9,-45.8 22.9,-2.9 21.4,-3 -.1,1.9 -1.9,1 -1.4,3.2 .2,1.3 6.1,3.8 2.6,-.3 3.1,4 .4,1.7 4.2,5.1 2.6,1.7 1.4,.2 2.2,1.6 1.1,2.2 2,1.6 1.8,.5 2.7,2.7 .1,1.4 2.6,2.8 5,2.3 3.6,6.7 .3,2.7 3.9,2.1 2.5,4.8 .8,3.1 4.2,.4 z"/>
</svg>
