<svg xmlns="http://www.w3.org/2000/svg" viewBox="222.05 506.11 124.19 81.07">
<path fill="black" d="m 317,553.7 -.2,3.2 1.7,1.9 .1,1.2 -4.8,4.5 -.1,1.2 1.9,3.2 1.7,4.2 v 2.6 l -.5,1.2 .1,3.4 4.1,2.1 1.1,1.1 1.2,-1.1 2.1,-3.6 4.5,-2.9 3.3,-.5 2.5,-1 1.7,-1.2 3.2,-3.5 -2.8,-1.1 -1.4,-1.4 .1,-1.7 -.5,-.6 h -2 l .2,-2.5 -.7,-1.2 -2.6,-2.3 -4.5,-1.9 -2.8,-.2 -3.3,-2.7 -1.2,-.6 z m -15.3,-17 -1.1,1.5 -.1,1.7 2.7,2.4 1.9,.5 .6,1 .4,3 3.6,.2 5.3,-2.6 -.1,-2.5 -1.4,-.5 -3.5,-2.6 -1.8,-.3 -2.9,1.3 -1.5,-2.7 z m -1.5,11.5 .9,-1.4 2.5,-.3 .6,1.8 z m -7,-8.7 1.7,4 3.1,-.6 .3,-2 -1.4,-1.5 z m -4.1,-6.7 -1.1,2.4 h 5 l 4.8,1.6 2.5,-1.6 .2,-1.5 -4.8,.2 z m -16,-10.6 -1.9,2.1 -2.9,.6 .8,2.2 2.2,2.8 .1,1 2.1,-.3 2.3,.1 1.7,1.2 3.5,-.8 v -.7 l -1,-.8 -.5,-2.1 -.8,-.3 -.5,1 -1.2,-1.3 .2,-1.4 -1.8,-3.3 -1.1,-.7 z m -31.8,-12.4 -4.2,2.9 .2,2.3 2.4,1.2 1.9,1.3 2.7,.4 2.6,-2.2 -.2,-1.9 .8,-1.7 v -1.4 l -1,-.9 z m -10.8,4.8 -.3,1.2 -1.9,.9 -.6,1.8 1,.8 1.1,-1.5 1.9,-.6 .4,-2.6 z M317.92,553.27L314.00,544.91L312.17,545.77L316.08,554.13Z M302.46,536.04L301.08,534.44L299.55,535.76L300.94,537.36Z M305.91,545.85L303.64,546.59L304.27,548.51L306.54,547.77Z M299.98,538.59L297.74,540.03L298.83,541.73L301.07,540.30Z M288.91,533.18L281.41,529.85L280.59,531.69L288.09,535.03Z M268.70,523.96L247.00,515.01L246.23,516.88L267.93,525.83Z M237.17,513.39L231.98,513.81L232.15,515.83L237.33,515.41Z"/>
</svg>
