<svg xmlns="http://www.w3.org/2000/svg" viewBox="135.69 19.08 114.51 185.35">
<path fill="black" d="m 165.3,183.1 -24.4,-5.4 8.5,-37.3 2.9,-5.8 .4,-2.1 .8,-.9 -.9,-2 -2.9,-1.2 .2,-4.2 4,-5.8 2.5,-.8 1.6,-2.3 -.1,-1.6 1.8,-1.6 3.2,-5.5 4.2,-4.8 -.5,-3.2 -3.5,-3.1 -1.6,-3.6 1.1,-4.3 -.7,-4 12.7,-56.1 14.2,3 -4.8,22 3.7,7.4 -1.6,4.8 3.6,4.8 1.9,.7 3.9,8.3 v 2.1 l 2.3,3 h .9 l 1.4,2.1 h 3.2 v 1.6 l -7.1,17 -.5,4.1 1.4,.5 1.6,2.6 2.8,-1.4 3.6,-2.4 1.9,1.9 .5,2.5 -.5,3.2 2.5,9.7 2.6,3.5 2.3,1.4 .4,3 v 4.1 l 2.3,2.3 1.6,-2.3 6.9,1.6 2.1,-1.2 9,1.7 2.8,-3.3 1.8,-.6 1.2,1.8 1.6,4.1 .9,.1 -8.5,54.8 -47.9,-8.2 z"/>
</svg>
