<svg xmlns="http://www.w3.org/2000/svg" viewBox="551.90 193.03 77.11 135.63">
<path fill="black" d="m 623.5,265.9 -1,5.2 v 2 l 2.4,3.5 v .7 l -.3,.9 .9,1.9 -.3,2.4 -1.6,1.8 -1.3,4.2 -3.8,5.3 -.1,7 h -1 l .9,1.9 v .9 l -2.2,2.7 .1,1.1 1.5,2.2 -.1,.9 -3.7,.6 -.6,1.2 -1.2,-.6 -1,.5 -.4,3.3 1.7,1.8 -.4,2.4 -1.5,.3 -6.9,-3 -4,3.7 .3,1.8 h -2.8 l -1.4,-1.5 -1.8,-3.8 v -1.9 l .8,-.6 .1,-1.3 -1.7,-1.9 -.9,-2.5 -2.7,-4.1 -4.8,-1.3 -7.4,-7.1 -.4,-2.4 2.8,-7.6 -.4,-1.9 1.2,-1.1 v -1.3 l -2.8,-1.5 -3,-.7 -3.4,1.2 -1.3,-2.3 .6,-1.9 -.7,-2.4 -8.6,-8.4 -2.2,-1.5 -2.5,-5.9 -1.2,-5.4 1.4,-3.7 .7,-.7 .1,-2.3 -.7,-.9 1,-1.5 1.8,-.6 .9,-.3 1,-1.2 v -2.4 l 1.7,-2.4 .5,-.5 .1,-3.5 -.9,-1.4 -1,-.3 -1.1,-1.6 1,-4 3,-.8 h 2.4 l 4.2,-1.8 1.7,-2.2 .1,-2.4 1.1,-1.3 1.3,-3.2 -.1,-2.6 -2.8,-3.5 h -1.2 l -.9,-1.1 .2,-1.6 -1.7,-1.7 -2.5,-1.3 .5,-.6 45.9,-2.8 .1,4.6 3.4,4.6 1.2,4.1 1.6,3.2 z"/>
</svg>
