<svg xmlns="http://www.w3.org/2000/svg" viewBox="586.93 264.92 142.23 72.16">
<path fill="black" d="m 692.1,322.5 -20.5,1.4 -5.2,.8 -17.4,1 -2.6,.8 -22.6,2 -.7,-.6 h -3.7 l 1.2,3.2 -.6,.9 -23.3,1.5 1,-2.7 1.4,.9 .7,-.4 1.2,-4.1 -1,-1 1,-2 .2,-.9 -1.3,-.8 -.3,-1.8 4,-3.7 6.9,3 1.5,-.3 .4,-2.4 -1.7,-1.8 .4,-3.3 1,-.5 1.2,.6 .6,-1.2 3.7,-.6 .1,-.9 -1.5,-2.2 -.1,-1.1 2.2,-2.7 0,-.9 1.1,.8 .6,-1 -.7,-1.7 4.6,-.5 .2,1.2 1.1,.2 .4,-.9 -.6,-1.3 .3,-.8 1.3,.8 1.7,-.4 1.7,.6 3.4,2.1 1.8,-2.8 3.5,-2.2 3,3.3 1.6,-2.1 .3,-2.7 3.8,-2.3 .2,1.3 1.9,1.2 3,-.2 1.2,-.7 .1,-3.4 2.5,-3.7 4.6,-4.4 -.1,-1.7 1.2,-3.8 2.2,1 6.7,-4.5 -.4,-1.7 -1.5,-2.1 1,-1.9 1.3,.5 2.2,.1 1.9,-.8 2.9,1.2 2.2,3.4 v 1 l 4.1,.7 2.3,-.2 1.9,2.1 2.2,.2 v -1 l 1.9,-.8 3,.8 1.2,.8 1.3,-.7 h .9 l .6,-1.7 3.4,-1.8 .5,.8 .8,2.9 3.5,1.4 1.2,2.1 -.1,1.1 .6,1 -.6,3.6 1.9,1.6 .8,1.1 1,.6 -.1,.9 4.4,5.6 h 1.4 l 1.5,1.8 1.2,.3 1.4,-.1 -4.9,6.6 -2.9,1 -3,3 -.4,2.2 -2.1,1.3 -.1,1.7 -1.4,1.4 -1.8,.5 -.5,1.9 -1,.4 -6.9,4.2 z m -98,11.3 -.7,-.7 .2,-1 h 1.1 l .7,.7 -.3,1 z M597.14,332.47L595.70,331.97L594.98,334.02L596.43,334.52Z"/>
</svg>
