<svg xmlns="http://www.w3.org/2000/svg" viewBox="511.76 408.57 108.79 95.37">
<path fill="black" d="m 602.5,472.8 -1.2,-1.8 .3,-1.3 -4.8,-6.8 .9,-4.6 1,-1.4 .1,-1.4 -36,2 1.7,-11.9 2.4,-4.8 6,-8.4 -1.8,-2.5 h 2 v -3.3 l -2.4,-2.5 .5,-1.7 -1.2,-1 -1.6,-7.1 .6,-1.4 -52.3,1.3 .5,19.9 .7,3.4 2.6,2.8 .7,5.4 3.8,4.6 .8,4.3 h 1 l -.1,7.3 -3.3,6.4 1.3,2.3 -1.3,1.5 .7,3 -.1,4.3 -2.2,3.5 -.1,.8 -1.7,1.2 1,1.8 1.2,1.1 1.6,-1.3 5.3,-.9 6.1,-.1 9.6,3.8 8,1 1.5,-1.4 1.8,-.2 4.8,2.2 1.6,-.4 1.1,-1.5 -4.2,-1.8 -2.2,1 -1.1,-.2 -1.4,-2 3.3,-2.2 1.6,-.1 v 1.7 l 1.5,-.1 3.4,-.3 .4,2.3 1.1,.4 .6,1.9 4.8,1 1.7,1.6 v .7 h -1.2 l -1.5,1.7 1.7,1.2 5.4,1 2.7,2.8 4.4,-1 -3.7,.2 -.1,-.6 2.8,-.7 .2,-1.8 1.2,-.3 v -1.4 l 1.1,.1 v 1.6 l 2.5,.1 .8,-1.9 .9,.3 .2,2.5 1.2,.2 -1.8,2 2.6,-.9 2,-1.1 2.9,-3.3 h -.7 l -1.3,1.2 -.4,-.1 -.5,-.8 .9,-1.2 v -2.3 l 1.1,-.8 .7,.7 1,-.8 1,-.1 .6,1.3 -.6,1.9 h 2.4 l 5.1,1.7 .5,1.3 1.6,1.4 2.8,.1 1.3,.7 1.8,-1 .9,-1.7 v -1.7 h -1.4 l -1.2,-1.4 -1.1,-1.1 -3.2,-.9 -2.6,.2 -4.2,-2.4 v -2.3 l 1.3,-1 2.4,.6 -3.1,-1.6 .2,-.8 h 3.6 l 2.6,-3.5 -2.6,-1.8 .8,-1.5 -1.2,-.8 h -.8 l -2,2.1 v 2.1 l -.6,.7 -1.1,-.1 -1.6,-1.4 h -1.3 v -1.5 l .6,-.7 .8,.7 1.7,-1.6 .7,-1.6 .8,-.3 z m -10.3,-2.7 1.9,1 .8,1.1 2.5,.1 1.5,.8 .2,1.4 -.4,.6 -.9,-1.5 -1.4,1.2 -.9,1.4 -2.8,.8 -1.6,.1 -3.7,-1 .1,-1.7 2,-2 1.1,-2.4 z m -4.7,1.2 v 1.1 l -1.8,2 h -1.2 v -2.2 l 1.6,-1.5 z M602.32,471.83L598.77,472.47L599.12,474.41L602.68,473.77Z M588.63,473.25L587.65,472.29L586.27,473.71L587.26,474.66Z"/>
</svg>
