<svg xmlns="http://www.w3.org/2000/svg" viewBox="753.45 228.12 86.90 43.56">
<path fill="black" d="m 822.9,269.3 0,-1.7 h -.8 l 0,1.8 z m 11.8,-3.9 1.2,-2.2 .1,-2.5 -.6,-.6 -.7,.9 -.2,2.1 -.8,1.4 -.3,1.1 -4.6,1.6 -.7,.8 -1.3,.2 -.4,.9 -1.3,.6 -.3,-2.5 .4,-.7 -.8,-.5 .2,-1.5 -1.6,1 v -2 l 1.2,-.3 -1.9,-.4 -.7,-.8 .4,-1.3 -.8,-.6 -.7,1.6 .5,.8 -.7,.6 -1.1,.5 -2,-1 -.2,-1.2 -1,-1.1 -1.4,-1.7 1.5,-.8 -1,-.6 v -.9 l .6,-1 1.7,-.3 -1.4,-.6 -.1,-.7 -1.3,-.1 -.4,1.1 -.6,.3 .1,-3.4 1,-1 .8,.7 .1,-1.6 -1,-.9 -.9,1.1 -1,1.4 -.6,-1 .2,-2.4 .9,-1 .9,.9 1.2,-.7 -.4,-1.7 -1,1 -.9,-2.1 -.2,-1.7 1.1,-2.4 1.1,-1.4 1.4,-.2 -.5,-.8 .5,-.6 -.3,-.7 .2,-2.1 -1.5,.4 -.8,1.1 1,1.3 -2.6,3.6 -.9,-.4 -.7,.9 -.6,2.2 -1.8,.5 1.3,.6 1.3,1.3 -.2,.7 .9,1.2 -1.1,1 .5,.3 -.5,1.3 v 2.1 l -.5,1.3 .9,1.1 .7,3.4 1.3,1.4 1.6,1.4 .4,2.8 1.6,2 .4,1.4 v 1 h -.7 l -1.5,-1.2 -.4,.2 -1.2,-.2 -1.7,-1.4 -1.4,-.3 -1,.5 -1.2,-.3 -.4,.2 -1.7,-.8 -1,-1 -1,-1.3 -.6,-.2 -.8,.7 -1.6,1.3 -1.1,-.8 -.4,-2.3 .8,-2.1 -.3,-.5 .3,-.4 -.7,-1 1,-.1 1,-.9 .4,-1.8 1.7,-2.6 -2.6,-1.8 -1,1.7 -.6,-.6 h -1 l -.6,-.1 -.4,-.4 .1,-.5 -1.7,-.6 -.8,.3 -1.2,-.1 -.7,-.7 -.5,-.2 -.2,-.7 .6,-.8 v -.9 l -1.2,-.2 -1,-.9 -.9,.1 -1.6,-.3 -.9,-.4 .2,-1.6 -1,-.5 -.2,-.7 h -.7 l -.8,-1.2 .2,-1 -2.6,.4 -2.2,-1.6 -1.4,.3 -.9,1.4 h -1.3 l -1.7,2.9 -3.3,.4 -1.9,-1 -2.6,3.8 -2.2,-.3 -3.1,3.9 -.9,1.6 -1.8,1.6 -1.7,-11.4 60.5,-11.8 7.6,27.1 10.9,-2.3 0,5.3 -.1,3.1 -1,1.8 z m -13.4,-1.8 -1.3,.9 .8,1.8 1.7,.8 -.4,-1.6 z M823.09,267.67L823.15,267.11L821.83,266.98L821.77,267.53Z M822.34,266.11L824.72,265.19L824.24,263.96L821.86,264.88Z"/>
</svg>
