<svg xmlns="http://www.w3.org/2000/svg" viewBox="558.97 67.99 145.97 152.13">
<path fill="black" d="m 663.3,209.8 .1,1.4 21.4,-3.5 .5,-1.2 3.9,-5.9 v -4.3 l .8,-2.1 2.2,-.8 2,-7.8 1,-.5 1,.6 -.2,.6 -1.1,.8 .3,.9 .8,.4 1.9,-1.4 .4,-9.8 -1.6,-2.3 -1.2,-3.7 v -2.5 l -2.3,-4.4 v -1.8 l -1.2,-3.3 -2.3,-3 -2.9,-1 -4.8,3 -2.5,4.6 -.2,.9 -3,3.5 -1.5,-.2 -2.9,-2.8 -.1,-3.4 1.5,-1.9 2,-.2 1.2,-1.7 .2,-4 .8,-.8 1.1,-.1 .9,-1.7 -.2,-9.6 -.3,-1.3 -1.2,-1.2 -1.7,-1 -.1,-1.8 .7,-.6 1.8,.8 -.3,-1.7 -1.9,-2.7 -.7,-1.6 -1.1,-1.1 h -2.2 l -8.1,-2.9 -1.4,-1.7 -3.1,-.3 -1.2,.3 -4.4,-2.3 h -1.4 l .5,1 -2.7,-.1 .1,.6 .6,.6 -2.5,2.1 .1,1.8 1.5,2.3 1.5,.2 v .6 l -1.5,.5 -2.1,-.1 -2.8,2.5 .1,2.5 .4,5.8 -2.2,3.4 .8,-4.5 -.8,-.6 -.9,5.3 -1,-2.3 .5,-2.3 -.5,-1 .6,-1.3 -.6,-1.1 1,-1 v -1.2 l -1.3,.6 -1.3,3.1 -.7,.7 -1.3,2.4 -1.7,-.2 -.1,1.2 h -1.6 l .2,1.5 .2,2 -3,1.2 .1,1.3 1,1.7 -.1,5.2 -1.3,4.4 -1.7,2.5 1.2,1.4 .8,3.5 -1,2.5 -.2,2.1 1.7,3.4 2.5,4.9 1.2,1.9 1.6,6.9 -.1,8.8 -.9,3.9 -2,3.2 -.9,3.7 -2,3 -1.2,1 z m -95.8,-96.8 3,3.8 17,3.8 1.4,1 4,.8 .7,.5 2.8,-.2 4.9,.8 1.4,1.5 -1,1 .8,.8 3.8,.7 1.2,1.2 .1,4.4 -1.3,2.8 2,.1 1,-.8 .9,.8 -1.1,3.1 1,1.6 1.2,.3 .8,-1.8 2.9,-4.6 1.6,-6 2.3,-2 -.5,-1.6 .5,-.9 1,1.6 -.3,2.2 2.9,-2.2 .2,-2.3 2.1,.6 .8,-1.6 .7,.6 -.7,1.5 -1,.5 -1,2 1.4,1.8 1.1,-.5 -.5,-.7 1,-1.5 1.9,-1.7 h .8 l .2,-2.6 2,-1.8 7.9,-.5 1.9,-3.1 3.8,-.3 3.8,1.2 4.2,2.7 .7,-.2 -.2,-3.5 .7,-.2 4.5,1.1 1.5,-.2 2.9,-.7 1.7,.4 1.8,.1 v -1.1 l -.7,-.9 -1.5,-.2 -1.1,-.8 .5,-1.4 -.8,-.3 -2.6,.1 -.1,-1 1.1,-.8 .6,.8 .5,-1.8 -.7,-.7 .7,-.2 -1.4,-1.3 .3,-1.3 .1,-1.9 h -1.3 l -1.5,1 -1.9,.1 -.5,1.8 -1.9,.2 -.3,-1.2 -2.2,.1 -1,1.2 -.7,-.1 -.2,-.8 -2.6,.4 -.1,-4.8 1,-2 -.7,-.1 -1.8,1.1 h -2.2 l -3.8,2.7 -6.2,.3 -4.1,.8 -1.9,1.5 -1.4,1.3 -2.5,1.7 -.3,.8 -.6,-1.7 -1.3,-.6 v .6 l .7,.7 v 1.3 l -1.5,-.6 h -.6 l -.3,1.2 -2,-1.9 -1.3,-.2 -1.3,1.5 -3.2,-.1 -.5,-1.4 -2,-1.9 -1.3,-1.6 v -.7 l -1.1,-1.4 -2.6,-1.2 -3.3,-.1 -1.1,-.9 h -1.4 l -.7,.4 -2.2,2.2 -.7,1.1 -1,-.7 .2,-1 .8,-2.1 3.2,-5 .8,-.2 1.7,-1.9 .7,-1.6 3,-.6 .8,-.6 -.1,-1 -.5,-.5 -4.5,.2 -2,.5 -2.6,1.2 -1.2,1.2 -1.7,2.2 -1.8,1 -3.3,3.4 -.4,1.6 -7.4,4.6 -4,.5 -1.8,.4 -2.3,3 -1.8,.7 -4.4,2.3 z m 100.7,3.8 3.8,.1 .6,-.5 -.2,-2 -1.7,-1.8 -1.9,.1 -.1,.5 1.1,.4 -1.6,.8 -.3,1 -.6,-.6 -.4,.8 z m -75.1,-41.9 -2.3,.2 -2.7,1.9 -7.1,5.3 .8,1 1.8,.3 2.8,-2 -1.1,-.5 2.3,-1.6 h 1 l 3,-1.9 -.1,-.9 z m 41.1,62.8 v 1 l 2.1,1.6 -.2,-2.4 z m -.7,2.8 1.1,.1 v .9 h -1 z m 21.4,-21.3 v .9 l .8,-.2 v -.5 z m 4.7,3.1 -.1,-1.1 -1.6,-.2 -.6,-.4 h -.9 l -.4,.3 .9,.4 1.1,1.1 z m -18,1.2 -.1,1.1 -.3,.7 .2,2.2 .4,.3 .7,.1 .5,-.9 .1,-1.6 -.3,-.6 -.1,-1.1 z M655.69,123.15L657.01,122.04L655.17,119.84L653.85,120.94Z M636.20,144.23L637.59,140.81L634.92,139.72L633.53,143.14Z M657.58,120.09L655.50,115.53L652.88,116.73L654.97,121.29Z M663.16,115.36L666.37,116.80L667.54,114.17L664.33,112.74Z M649.79,123.45L642.97,124.05L643.22,126.91L650.04,126.32Z M593.31,94.37L585.21,82.49L582.83,84.11L590.93,95.99Z"/>
</svg>
