<svg xmlns="http://www.w3.org/2000/svg" viewBox="456.51 47.28 127.38 141.13">
<path fill="black" d="m 464.7,68.6 -1.1,2.8 .8,1.4 -.3,5.1 -.5,1.1 2.7,9.1 1.3,2.5 .7,14 1,2.7 -.4,5.8 2.9,7.4 .3,5.8 -.1,2.1 -.1,2.2 -.9,2 -3.1,1.9 -.3,1.2 1.7,2.5 .4,1.8 2.6,.6 1.5,1.9 -.2,39.5 h 28.2 l 36.3,-.9 18.6,-.7 -1.1,-4.5 -.2,-3 -2.2,-3 -2.8,-.7 -5.2,-3.6 -.6,-3.3 -6.3,-3.1 -.2,-1.3 h -3.3 l -2.2,-2.6 -2,-1.3 .7,-5.1 -.9,-1.6 .5,-5.4 1,-1.8 -.3,-2.7 -1.2,-1.3 -1.8,-.3 v -1.7 l 2.8,-5.8 5.9,-3.9 -.4,-13 .9,.4 .6,-.5 .1,-1.1 .9,-.6 1.4,1.2 .7,-.1 v 0 l -1.2,-2.2 4.3,-3.1 3.1,-3.7 1.6,-.8 4.7,-5.9 6.3,-5.8 3.9,-2.1 6.3,-2.7 7.6,-4.5 -.6,-.4 -3.7,.7 -2.8,.1 -1,-1.6 -1.4,-.9 -9.8,1.2 -1,-2.8 -1.6,-.1 -1.7,.8 -3.7,3.1 h -4.1 l -2.1,-1 -.3,-1.7 -3.9,-.8 -.6,-1.6 -.7,-1.3 -1,.9 -2.6,.1 -9.9,-5.5 h -2.9 l -.8,-.7 -3.1,1.3 -.8,1.3 -3.3,.8 -1.3,-.2 v -1.7 l -.7,-.9 h -5.9 l -.4,-1.4 h -2.6 l -1.1,.4 -2.4,-1.7 .3,-1.4 -.6,-2.4 -.7,-1.1 -.2,-3 -1,-3.1 -2.1,-1.6 h -2.9 l .1,8 -30.9,-.4 z"/>
</svg>
