<svg xmlns="http://www.w3.org/2000/svg" viewBox="478.66 239.86 128.37 110.88">
<path fill="black" d="m 555.3,248.9 -1.1,-1.1 -.6,-1.6 -1.7,-1.3 -14.3,.8 -27.2,1.2 -25.9,-.1 1.3,1.3 -.3,1.4 2.1,3.7 3.9,6.3 2.9,3 2,.6 .9,-1 1.5,2.1 -.1,1.2 -2.7,2.6 -.5,2.3 2.5,2.5 2.6,4.7 3.2,.7 .5,48.1 .2,10.8 39.1,-.7 39.8,-2 1.6,2.5 v 2.2 l -1.7,1.5 -2.8,5.1 11.2,-.8 1,-2 1.2,-.5 v -.7 l -1.2,-1.1 -.6,-1 1.7,.2 .8,-.7 -1.4,-1.5 1.4,-.5 .1,-1 -.6,-1 v -1.3 l -.7,-.7 .2,-1 h 1.1 l .7,.7 -.3,1 .8,.7 .8,-1 1,-2.7 1.4,.9 .7,-.4 1.2,-4.1 -1,-1 1,-2 .2,-.9 -1.3,-.8 h -2.8 l -1.4,-1.5 -1.8,-3.8 v -1.9 l .8,-.6 .1,-1.3 -1.7,-1.9 -.9,-2.5 -2.7,-4.1 -4.8,-1.3 -7.4,-7.1 -.4,-2.4 2.8,-7.6 -.4,-1.9 1.2,-1.1 v -1.3 l -2.8,-1.5 -3,-.7 -3.4,1.2 -1.3,-2.3 .6,-1.9 -.7,-2.4 -8.6,-8.4 -2.2,-1.5 -2.5,-5.9 -1.2,-5.4 1.4,-3.7 z"/>
</svg>
