<svg xmlns="http://www.w3.org/2000/svg" viewBox="681.77 296.32 170.06 74.36">
<path fill="black" d="m 829,300.1 -29.1,6.1 -39.4,7.3 -29.4,3.5 v 5.2 l -1.5,-.1 -1.4,1.2 -2.4,5.2 -2.6,-1.1 -3.5,2.5 -.7,2.1 -1.5,1.2 -.8,-.8 -.1,-1.5 -.8,-.2 -4,3.3 -.6,3.4 -4.7,2.4 -.5,1.2 -3.2,2.6 -3.6,.5 -4.6,3 -.8,4.1 -1.3,.9 -1.5,-.1 -1.4,1.3 -.1,4.9 21.4,-3 4.4,-1.9 1.3,-.1 7.3,-4.3 23.2,-2.2 .4,.5 -.2,1.4 .7,.3 1.2,-1.5 3.3,3 .1,2.6 19.7,-2.8 24.5,17.1 4,-2.2 3,-.7 h 1.7 l 1.1,1.1 .8,-2 .6,-5 1.7,-3.9 5.4,-6.1 4.1,-3.5 5.4,-2.3 2.5,-.4 1.3,.4 .7,1.1 3.3,-6.6 3.3,-5.3 -.7,-.3 -4.4,6.8 -.5,-.8 2,-2.2 -.4,-1.5 -2,-.5 1,1.3 -1.2,.1 -1.2,-1.8 -1.2,2 -1.6,.2 1,-2.7 .7,-1.7 -.2,-2.9 -2.2,-.1 .9,-.9 1.1,.3 2.7,.1 .8,-.5 h 2.3 l 2,-1.9 .2,-3.2 1.3,-1.4 1.2,-.2 1.3,-1 -.5,-3.7 -2.2,-3.8 -2.7,-.2 -.9,1.6 -.5,-1 -2.7,.2 -1.2,.4 -1.9,1.2 -.3,-.4 h -.9 l -1.8,1.2 -2.6,.5 v -1.3 l .8,-1 1,.7 h 1 l 1.7,-2.1 3.7,-1.7 2,-2.2 h 2.4 l .8,1.3 1.7,.8 -.5,-1.5 -.3,-1.6 -2.8,-3.1 -.3,-1.4 -.4,1 -.9,-1.3 z m 7,31 2.7,-2.5 4.6,-3.3 v -3.7 l -.4,-3.1 -1.7,-4.2 1.5,1.4 1,3.2 .4,7.6 -1.7,.4 -3.1,2.4 -3.2,3.2 z m 1.9,-19.3 -.9,-.2 v 1 l 2.5,2.2 -.2,-1.4 z m 2.9,2.1 -1.4,-2.8 -2.2,-3.4 -2.4,-3 -2.2,-4.3 -.8,-.7 2.2,4.3 .3,1.3 3.4,5.5 1.8,2.1 z M835.75,308.80L836.35,308.31L834.75,306.35L834.15,306.84Z M838.77,311.80L838.36,312.07L839.75,314.18L840.16,313.91Z M839.79,314.66L840.30,315.35L842.33,313.83L841.81,313.14Z"/>
</svg>
