<svg xmlns="http://www.w3.org/2000/svg" viewBox="821.35 187.81 25.41 59.29">
<path fill="black" d="m 842.5,195.4 -14.6,-4.9 -1.8,2.5 .1,2.2 -3,5.4 1.5,1.8 -.7,2 -1,1 .5,3.6 2.7,.9 1,2.8 2.1,1.1 4.2,3.2 -3.3,2.6 -1.6,2.3 -1.8,3 -1.6,.6 -1.4,1.7 -1,2.2 -.3,2.1 .8,.9 .4,2.3 1.2,.6 2.4,1.5 1.8,.8 1.6,.8 .1,1.1 .8,.1 1.1,-1.2 .8,.4 2.1,.2 -.2,2.9 .2,2.5 1.8,-.7 1.5,-3.9 1.6,-4.8 2.9,-2.8 .6,-3.5 -.6,-1.2 1.7,-2.9 v -1.2 l -.7,-1.1 1.2,-2.7 -.3,-3.6 -.6,-8.2 -1.2,-1.4 v 1.4 l .5,.6 h -1.1 l -.6,-.4 -1.3,-.2 -.9,.6 -1.2,-1.6 .7,-1.7 v -1 l 1.7,-.7 .8,-2.1 z"/>
</svg>
