<svg xmlns="http://www.w3.org/2000/svg" viewBox="736.38 101.97 145.64 110.66">
<path fill="black" d="m 872.9,181.6 -1.3,.1 -.5,1 z m -30.6,22.7 .7,.6 1.3,-.3 1.1,.3 .9,-1.3 h 1.9 l 2.4,-.9 5.1,-2.1 -.5,-.5 -1.9,.8 -2,.9 .2,-.8 2.6,-1.1 .8,-1 1.2,.1 4.1,-2.3 v .7 l -4.2,3 4.5,-2.8 1.7,-2.2 1.5,-.1 4.5,-3.1 3.2,-3.1 3,-2.3 1,-1.2 -1.7,-.1 -1,1.2 -.2,.7 -.9,.7 -.8,-1.1 -1.7,1 -.1,.9 -.9,-.2 .5,-.9 -1.2,-.7 -.6,.9 .9,.3 .2,.5 -.3,.5 -1.4,2.6 h -1.9 l .9,-1.8 .9,-.6 .3,-1.7 1.4,-1.6 .9,-.8 1.5,-.7 -1.2,-.2 -.7,.9 h -.7 l -1.1,.8 -.2,1 -2.2,2.1 -.4,.9 -1.4,.9 -7.7,1.9 .2,.9 -.9,.7 -2,.3 -1,-.6 -.2,1.1 -1.1,-.4 .1,1 -1.2,-.1 -1.2,.5 -.2,1.1 h -1 l .2,1 h -.7 l .2,1 -1.8,.4 -1.5,2.3 z m -.8,-.4 -1.6,.4 v 1 l -.7,1.6 .6,.7 2.4,-2.3 -.1,-.9 z m -10.1,-95.2 -.6,1.9 1.4,.9 -.4,1.5 .5,3.2 2.2,2.3 -.4,2.2 .6,2 -.4,1 -.3,3.8 3.1,6.7 -.8,1.8 .9,2.2 .9,-1.6 1.9,1.5 3,14.2 -.5,2 1.1,1 -.5,15 .7,1 2.8,16.3 1.8,1.5 -3.5,3.4 1.7,2.2 -1.3,3.3 -1.5,1.7 -1.5,2.3 -.2,-.7 .4,-5.9 -14.6,-4.9 -1.6,-1.1 -1.9,.3 -3,-2.2 -3,-5.8 h -2 l -.4,-1.5 -1.7,-1.1 -70.5,13.9 -.8,-6 4.3,-3.9 .6,-1.7 3.9,-2.5 .6,-2.4 2.3,-2 .8,-1.1 -1.7,-3.3 -1.7,-.5 -1.8,-3 -.2,-3.2 7.6,-3.9 8.2,-1.6 h 4.4 l 3.2,1.6 .9,-.1 1.8,-1.6 3.4,-.7 h 3 l 2.6,-1.3 2.5,-2.6 2.4,-3.1 1.9,-.4 1.1,-.5 .4,-3.2 -1.4,-2.7 -1.2,-.7 2,-1.3 -.1,-1.8 h -1.5 l -2.3,-1.4 -.1,-3.1 6.2,-6.1 .7,-2.4 3.7,-6.3 5.9,-6.4 2.1,-1.7 2.5,.1 20.6,-5.2 z M870.28,181.74L867.95,183.86L869.62,185.70L871.96,183.59Z M841.77,203.17L841.57,203.27L842.62,205.53L842.83,205.43Z M844.41,201.28L844.47,200.69L841.98,200.47L841.93,201.06Z"/>
</svg>
