<svg xmlns="http://www.w3.org/2000/svg" viewBox="659.73 190.99 80.74 92.62">
<path fill="black" d="m 685.7,208.8 1.9,-.4 3,1.3 2.1,.6 .7,.9 h 1 l 1,-1.5 1.3,.8 h 1.5 l -.1,1 -3.1,.5 -2,1.1 1.9,.8 1.6,-1.5 2.4,-.4 2.2,1.5 1.5,-.1 2.5,-1.7 3.6,-2.1 5.2,-.3 4.9,-5.9 3.8,-3.1 9.3,-5.1 4.9,29.9 -2.2,1.2 1.4,2.1 -.1,2.2 .6,2 -1.1,3.4 -.1,5.4 -1,3.6 .5,1.1 -.4,2.2 -1.1,.5 -2,3.3 -1.8,2 h -.6 l -1.8,1.7 -1.3,-1.2 -1.5,1.8 -.3,1.2 h -1.3 l -1.3,2.2 .1,2.1 -1,.5 1.4,1.1 v 1.9 l -1,.2 -.7,.8 -1,.5 -.6,-2.1 -1.6,-.5 -1,2.3 -.3,2.2 -1.1,1.3 1.3,3.6 -1.5,.8 -.4,3.5 h -1.5 l -3.2,1.4 -1.2,-2.1 -3.5,-1.4 -.8,-2.9 -.5,-.8 -3.4,1.8 -.6,1.7 h -.9 l -1.3,.7 -1.2,-.8 -3,-.8 -1.9,.8 v 1 l -2.2,-.2 -1.9,-2.1 -2.3,.2 -4.1,-.7 v -1 l -2.2,-3.4 -2.9,-1.2 -1.9,.8 -2.2,-.1 -1.3,-.5 -6.6,-57.2 21.4,-3.5 z"/>
</svg>
