<svg xmlns="http://www.w3.org/2000/svg" viewBox="349.94 318.39 166.21 86.02">
<path fill="black" d="m 501.5,398.6 -4.6,-3.8 -2.2,-.9 -.5,1.6 -5.1,.3 -.6,-1.5 -5,2.5 -1.6,-.7 -3.7,.3 -.6,1.7 -3.6,.9 -1.3,-1.2 -1.2,.1 -2,-1.8 -2.1,.7 -2,-.5 -1.8,-2 -2.5,4.2 -1.2,.8 -1,-1.8 .3,-2 -1.2,-.7 -2.3,2.5 -1.7,-1.2 -.1,-1.5 -1.3,.5 -2.6,-1.7 -3,2.6 -2.3,-1.1 .7,-2.1 -2.3,.1 -1.9,-3 -3.5,-1.1 -2,2.3 -2.3,-2.2 -1.4,.4 -2,.1 -3.5,-1.9 -2.3,.1 -1.2,-.7 -.5,-2.9 -2.3,-1.7 -1.1,1.5 -1.4,-1 -1.2,-.4 -1.1,1 -1.5,-.3 -2.5,-3 -2.7,-1.3 1.4,-42.7 -52.6,-3.2 .6,-10.6 16.5,1 67.7,2.9 62,.1 .2,10.8 4.1,24.4 -.7,39 z"/>
</svg>
