<svg xmlns="http://www.w3.org/2000/svg" viewBox="19.47 53.59 154.66 130.02">
<path fill="black" d="m 93.9,166.5 47,11.2 8.5,-37.3 2.9,-5.8 .4,-2.1 .8,-.9 -.9,-2 -2.9,-1.2 .2,-4.2 4,-5.8 2.5,-.8 1.6,-2.3 -.1,-1.6 1.8,-1.6 3.2,-5.5 4.2,-4.8 -.5,-3.2 -3.5,-3.1 -1.6,-3.6 -30.3,-7.3 -2.8,1 -5.4,-.9 -1.8,-.9 -1.5,1.2 -3.3,-.4 -4.5,.5 -.9,.7 -4.2,-.4 -.8,-1.6 -1.2,-.2 -4.4,1.3 -1.6,-1.1 -2.2,.8 -.2,-1.8 -2.3,-1.2 -1.5,-.2 -1,-1.1 -3,.3 -1.2,-.8 h -1.2 l -1.2,.9 -5.5,.7 -6.6,-4.2 1.1,-5.6 -.4,-4.1 -3.2,-3.7 -3.7,.1 -.4,-1.1 .4,-1.2 -.7,-.8 -1,.1 -1.1,1.3 -1.5,-.2 -.5,-1.1 -1,-.1 -.7,.6 -2,-1.9 v 4.3 l -1.3,1.3 -1.1,3.5 -.1,2.3 -4.5,12.3 -13.2,31.3 -3.2,4.6 -1.6,-.1 .1,2.1 -5.2,7.1 -.3,3.3 1,1.3 .1,2.4 -1.2,1.1 -1.2,3 .1,5.7 1.2,2.9 z"/>
</svg>
