<svg xmlns="http://www.w3.org/2000/svg" viewBox="703.03 343.35 98.23 73.70">
<path fill="black" d="m 772.3,350.2 -19.7,2.8 -.1,-2.6 -3.3,-3 -1.2,1.5 -.7,-.3 .2,-1.4 -.4,-.5 -23.2,2.2 -7.3,4.3 -1.3,.1 -4.4,1.9 -.1,1.9 -1.9,1 -1.4,3.2 .2,1.3 6.1,3.8 2.6,-.3 3.1,4 .4,1.7 4.2,5.1 2.6,1.7 1.4,.2 2.2,1.6 1.1,2.2 2,1.6 1.8,.5 2.7,2.7 .1,1.4 2.6,2.8 5,2.3 3.6,6.7 .3,2.7 3.9,2.1 2.5,4.8 .8,3.1 4.2,.4 .8,-1.5 h .6 l 1.8,-1.5 .5,-2 3.2,-2.1 .3,-2.4 -1.2,-.9 .8,-.7 .8,.4 1.3,-.4 1.8,-2.1 3.8,-1.8 1.6,-2.4 .1,-.7 4.8,-4.4 -.1,-.5 -.9,-.8 1.1,-1.5 h .8 l .4,.5 .7,-.8 h 1.3 l .6,-1.5 2.3,-2.1 -.3,-5.4 .8,-2.3 3.6,-6.2 2.4,-2.2 2.2,-1.1 z"/>
</svg>
