<svg xmlns="http://www.w3.org/2000/svg" viewBox="575.16 313.73 163.68 56.54">
<path fill="black" d="m 620.9,365.1 45.7,-4 22.9,-2.9 .1,-4.9 1.4,-1.3 1.5,.1 1.3,-.9 .8,-4.1 4.6,-3 3.6,-.5 3.2,-2.6 .5,-1.2 4.7,-2.4 .6,-3.4 4,-3.3 .8,.2 .1,1.5 .8,.8 1.5,-1.2 .7,-2.1 3.5,-2.5 2.6,1.1 2.4,-5.2 1.4,-1.2 1.5,.1 0,-5.2 .3,-.7 -4.6,.5 -.2,1 -28.9,3.3 -5.6,1.4 -20.5,1.4 -5.2,.8 -17.4,1 -2.6,.8 -22.6,2 -.7,-.6 h -3.7 l 1.2,3.2 -.6,.9 -23.3,1.5 -.8,1 -.8,-.7 h -1 v 1.3 l .6,1 -.1,1 -1.4,.5 1.4,1.5 -.8,.7 -1.7,-.2 .6,1 1.2,1.1 v .7 l -1.2,.5 -1,2 .1,.6 1.4,1 -.4,.7 h -1.5 v .5 l .9,.9 .1,.8 -1.4,.2 -.5,.8 -1.6,.2 -.9,.9 .6,.9 1.1,-.1 .5,.9 -1.6,1.3 .4,1.5 -2,-.6 -.1,.7 .4,1.1 -.3,1.4 -1.3,-.8 -.8,.8 1.1,.1 .1,1.5 -.6,1 1.1,.9 -.3,1.5 .8,.7 -.7,1 -1.2,-.5 -.9,2.2 -1.6,.7 z"/>
</svg>
