<svg xmlns="http://www.w3.org/2000/svg" viewBox="270.07 320.94 268.95 263.12">
<path fill="black" d="m 282.3,429 .3,-3 34.4,3.6 31.8,2.6 7.9,-99.3 .8,0 52.6,3.2 -1.4,42.7 2.7,1.3 2.5,3 1.5,.3 1.1,-1 1.2,.4 1.4,1 1.1,-1.5 2.3,1.7 .5,2.9 1.2,.7 2.3,-.1 3.5,1.9 2,-.1 1.4,-.4 2.3,2.2 2,-2.3 3.5,1.1 1.9,3 2.3,-.1 -.7,2.1 2.3,1.1 3,-2.6 2.6,1.7 1.3,-.5 .1,1.5 1.7,1.2 2.3,-2.5 1.2,.7 -.3,2 1,1.8 1.2,-.8 2.5,-4.2 1.8,2 2,.5 2.1,-.7 2,1.8 1.2,-.1 1.3,1.2 3.6,-.9 .6,-1.7 3.7,-.3 1.6,.7 5,-2.5 .6,1.5 5.1,-.3 .5,-1.6 2.2,.9 4.6,3.8 6.4,1.9 2.6,2.3 2.8,-1.3 3.2,.8 .2,11.9 .5,19.9 .7,3.4 2.6,2.8 .7,5.4 3.8,4.6 .8,4.3 h 1 l -.1,7.3 -3.3,6.4 1.3,2.3 -1.3,1.5 .7,3 -.1,4.3 -2.2,3.5 -.1,.8 -1.7,1.2 1,1.8 1.2,1.1 -3.5,.3 -8.4,3.9 -3.5,1.4 -1.8,1.8 -.7,-.5 2.1,-2.3 1.8,-.7 .5,-.9 -2.9,-.1 -.7,-.8 .8,-2 -.9,-1.8 h -.6 l -2.4,1.3 -1.9,2.6 .3,1.7 3.3,3.4 1.3,.3 v .8 l -2.3,1.6 -4.9,4 -4,3.9 -3.2,1.4 -5,3 -3.7,2 -4.5,1.9 -4.1,2.5 3.2,-3 v -1.1 l .6,-.8 -.2,-1.8 -1.5,-.1 -1.1,1.5 -2.6,1.3 -1.8,-1.2 -.3,-1.7 h -1.5 l .8,2.2 1.4,.7 1.2,.9 1.8,1.6 -.7,.8 -3.9,1.7 -1.7,.1 -1.2,-1.2 -.5,2.1 .5,1.1 -2.7,2 -1.5,.2 -.8,.7 -.4,1.7 -1.8,3.3 -1.6,.7 -1.6,-.6 -1.8,1.1 .3,1.4 1.3,.8 1,.8 -1.8,3.5 -.3,2.8 -1,1.7 -1.4,1 -2.9,.4 1.8,.6 1.9,-.6 -.4,3.2 -1.1,-.1 .2,1.2 .3,1.4 -1.3,.9 v 3.1 l 1.6,1.4 .6,3.1 -.4,2.2 -1,.4 .4,1.5 1.1,.4 .8,1.7 v 2.6 l 1.1,2.1 2.2,2.6 -.1,.7 -2.2,-.2 -1.6,1.4 .2,1.4 -.9,-.3 -1.4,-.2 -3.4,-3.7 -2.3,-.6 h -7.1 l -2.8,-.8 -3.6,-3 -1.7,-1 -2.1,.1 -3.2,-2.6 -5.4,-1.6 v -1.3 l -1.4,-1.8 -.9,-4.7 -1.1,-1.7 -1.7,-1.4 v -1.6 l -1.4,-.6 .6,-2.6 -.3,-2.2 -1.3,-1.4 .7,-3 -.8,-3.2 -1.7,-1.4 h -1.1 l -4,-3.5 .1,-1.9 -.8,-1.7 -.8,-.2 -.9,-2.4 -2,-1.6 -2.9,-2.5 -.2,-2.1 -1,-.7 .2,-1.6 .5,-.7 -1.4,-1.5 .1,-.7 -2,-2.2 .1,-2.1 -2.7,-4.9 -.1,-1.7 -1.8,-3.1 -5.1,-4.8 v -1.1 l -3.3,-1.7 -.1,-1.8 -1.2,-.4 v -.7 l -.8,-.2 -2.1,-2.8 h -.8 l -.7,-.6 -1.3,1.1 h -2.2 l -2.6,-1.1 h -4.6 l -4.2,-2.1 -1.3,1.9 -2.2,-.6 -3.3,1.2 -1.7,2.8 -2,3.2 -1.1,4.4 -1.4,1.2 -1.1,.1 -.9,1.6 -1.3,.6 -.1,1.8 -2.9,.1 -1.8,-1.5 h -1 l -2,-2.9 -3.6,-.5 -1.7,-2.3 -1.3,-.2 -2.1,-.8 -3.4,-3.4 .2,-.8 -1.6,-1.2 -1,-.1 -3.4,-3.1 -.1,-2 -2.3,-4 .2,-1.6 -.7,-1.3 .8,-1.5 -.1,-2.4 -2.6,-4.1 -.6,-4.2 -1.6,-1.6 v -1 l -1.2,-.2 -.7,-1.1 -2.4,-1.7 -.9,-.1 -1.9,-1.6 v -1.1 l -2.9,-1.8 -.6,-2.1 -2.6,-2.3 -3.2,-4.4 -3,-1.3 -2.1,-1.8 .2,-1.2 -1.3,-1.4 -1.7,-3.7 -2.4,-1 z m 174.9,138.3 .8,.1 -.6,-4.8 -3.5,-12.3 -.2,-8.1 4.9,-10.5 6.1,-8.2 7.2,-5.1 v -.7 h -.8 l -2.6,1 -3.6,2.3 -.7,1.5 -8.2,11.6 -2.8,7.9 v 8.8 l 3.6,12 z M451.87,544.11L452.71,544.30L453.84,539.30L453.00,539.11Z"/>
</svg>
