<svg xmlns="http://www.w3.org/2000/svg" viewBox="690.82 240.88 151.36 84.04">
<path fill="black" d="m 834.7,265.4 -1.1,2.8 .5,1.1 .4,-1.1 .8,-3.1 z m -34.6,-7 -.7,-1 1,-.1 1,-.9 .4,-1.8 -.2,-.5 .1,-.5 -.3,-.7 -.6,-.5 -.4,-.1 -.5,-.4 -.6,-.6 h -1 l -.6,-.1 -.4,-.4 .1,-.5 -1.7,-.6 -.8,.3 -1.2,-.1 -.7,-.7 -.5,-.2 -.2,-.7 .6,-.8 v -.9 l -1.2,-.2 -1,-.9 -.9,.1 -1.6,-.3 -.4,.7 -.4,1.6 -.5,2.3 -10,-5.2 -.2,.9 .9,1.6 -.8,2.3 .1,2.9 -1.2,.8 -.5,2.1 -.9,.8 -1.4,1.8 -.9,.8 -1,2.5 -2.4,-1.1 -2.3,8.5 -1.3,1.6 -2.8,-.5 -1.3,-1.9 -2.3,-.7 -.1,4.7 -1.4,1.7 .4,1.5 -2.1,2.2 .4,1.9 -3.7,6.3 -1,3.3 1.5,1.2 -1.5,1.9 .1,1.4 -2.3,2 -.7,-1.1 -4.3,3.1 -1.5,-1 -.6,1.4 .8,.5 -.5,.9 -5.5,2.4 -3,-1.8 -.8,1.7 -1.9,1.8 -2.3,.1 -4.4,-2.3 -.1,-1.5 -1.5,-.7 .8,-1.2 -.7,-.6 -4.9,6.6 -2.9,1 -3,3 -.4,2.2 -2.1,1.3 -.1,1.7 -1.4,1.4 -1.8,.5 -.5,1.9 -1,.4 -6.9,4.2 28.9,-3.3 .2,-1 4.6,-.5 -.3,.7 29.4,-3.5 39.4,-7.3 29.1,-6.1 -.6,-1.2 .4,-.1 .9,.9 -.1,-1.4 -.3,-1.9 1.6,1.2 .9,2.1 v -1.3 l -3.4,-5.5 v -1.2 l -.7,-.8 -1.3,.7 .5,1.4 h -.8 l -.4,-1 -.6,.9 -.9,-1.1 -2.1,-.1 -.2,.7 1.5,2.1 -1.4,-.7 -.5,-1 -.4,.8 -.8,.1 -1.5,1.7 .3,-1.6 v -1.4 l -1.5,-.7 -1.8,-.5 -.2,-1.7 -.6,-1.3 -.6,1.1 -1.7,-1 -2,.3 .2,-.9 1.5,-.2 .9,.5 1.7,-.8 .9,.4 .5,1 v .7 l 1.9,.4 .3,.9 .9,.4 .9,1.2 1.4,-1.6 h .6 l -.1,-2.1 -1.3,1 -.6,-.9 1.5,-.2 -1.2,-.9 -1.2,.6 -.1,-1.7 -1.7,.2 -2.2,-1.1 -1.8,-2.2 3.6,2.2 .9,.3 1.7,-.8 -1.7,-.9 .6,-.6 -1,-.5 .8,-.2 -.3,-.9 1.1,.9 .4,-.8 .4,1.3 1.2,.8 .6,-.5 -.5,-.6 -.1,-2.5 -1.1,-.1 -1.6,-.8 .9,-1.1 -2,-.1 -.4,-.5 -1.4,.6 -1.4,-.8 -.5,-1.2 -2.1,-1.2 -2.1,-1.8 -2.2,-1.9 3,1.3 .9,1.2 2.1,.7 2.3,2.5 .2,-1.7 .6,1.3 2.3,.5 v -4 l -.8,-1.1 1.1,.4 .1,-1.6 -3.1,-1.4 -1.6,-.2 -1.3,-.2 .3,-1.2 -1.5,-.3 -.1,-.6 h -1.8 l -.2,.8 -.7,-1 h -2.7 l -1,-.4 -.2,-1 -1.2,-.6 -.4,-1.5 -.6,-.4 -.7,1.1 -.9,.2 -.9,.7 h -1.5 l -.9,-1.3 .4,-3.1 .5,-2.4 .6,.5 z m 21.9,11.6 .9,-.1 0,-.6 -.8,.1 z m 7.5,14.2 -1,2.7 1.2,-1.3 z m -1.8,-15.3 .7,.3 -.2,1.9 -.5,-.5 -1.3,1 1,.4 -1.8,4.4 .1,8.1 1.9,3.1 .5,-1.5 .4,-2.7 -.3,-2.3 .7,-.9 -.2,-1.4 1.2,-.6 -.6,-.5 .5,-.7 .8,1.1 -.2,1.1 -.4,3.9 1.1,-2.2 .4,-3.1 .1,-3 -.3,-2 .6,-2.3 1.1,-1.8 .1,-2.2 .3,-.9 -4.6,1.6 -.7,.8 z M832.97,267.20L832.37,267.58L833.64,269.58L834.23,269.20Z M827.98,288.17L828.68,288.07L828.32,285.73L827.62,285.84Z M826.66,286.69L825.34,291.50L827.61,292.12L828.94,287.32Z"/>
</svg>
