<svg xmlns="http://www.w3.org/2000/svg" viewBox="51.54 0.86 128.92 95.37">
<path fill="black" d="m 161.9,83.6 .7,4 -1.1,4.3 -30.3,-7.3 -2.8,1 -5.4,-.9 -1.8,-.9 -1.5,1.2 -3.3,-.4 -4.5,.5 -.9,.7 -4.2,-.4 -.8,-1.6 -1.2,-.2 -4.4,1.3 -1.6,-1.1 -2.2,.8 -.2,-1.8 -2.3,-1.2 -1.5,-.2 -1,-1.1 -3,.3 -1.2,-.8 h -1.2 l -1.2,.9 -5.5,.7 -6.6,-4.2 1.1,-5.6 -.4,-4.1 -3.2,-3.7 -3.7,.1 -.4,-1.1 .4,-1.2 -.7,-.8 -1,.1 -2.1,-1.5 -1.2,.4 -2,-.1 -.7,-1.5 -1.6,-.3 2.5,-7.5 -.7,6 .5,.5 v -2 l .8,-.2 1.1,2.3 -.5,-2.2 1.2,-4.2 1.8,.4 -1.1,-2 -1,.3 -1.5,-.4 .2,-4.2 .2,1.5 .9,.5 .6,-1.6 h 3.2 l -2.2,-1.2 -1.7,-1.9 -1.4,1.6 1.2,-3.1 -.3,-4.6 -.2,-3.6 .9,-6.1 -.5,-2 -1.4,-2.1 .1,-4 .4,-2.7 2,-2.3 -.7,-1.4 .2,-.6 .9,.1 7.8,7.6 4.7,1.9 5.1,2.5 3.2,-.1 .2,3 1,-1.6 h .7 l .6,2.7 .5,-2.6 1.4,-.2 .5,.7 -1.1,.6 .1,1.6 .7,-1.5 h 1.1 l -.4,2.6 -1.1,-.8 .4,1.4 -.1,1.5 -.8,.7 -2.5,2.9 1.2,-3.4 -1.6,.4 -.4,2.1 -3.8,2.8 -.4,1 -2.1,2.2 -.1,1 h 2.2 l 2.4,-.2 .5,-.9 -3.9,.5 v -.6 l 2.6,-2.8 1.8,-.8 1.9,-.2 1,-1.6 3,-2.3 v -1.4 h 1.1 l .1,4 h -1.5 l -.6,.8 -1.1,-.9 .3,1.1 v 1.7 l -.7,.7 -.3,-1.6 -.8,.8 .7,.6 -.9,1.1 h 1.3 l .7,-.5 .1,2 -1,1.9 -.9,1 -.1,1.8 -1,-.2 -.2,-1.4 .9,-1.1 -.8,-.5 -.8,.7 -.7,2.2 -.8,.9 -.1,-2 .8,-1.1 -.2,-1.1 -1.2,1.2 .1,2.2 -.6,.4 -2.1,-.4 -1.3,1.2 2.2,-.6 -.2,2.2 1,-1.8 .4,1.4 .5,-1 .7,1.8 h .7 l .7,-.8 .6,-.1 2,-1.9 .2,-1.2 .8,.6 .3,.9 .7,-.3 .1,-1.2 h 1.3 l .2,-2.9 -.1,-2.7 .9,.3 -.7,-2.1 1.4,-.8 .2,-2.4 2.3,-2.2 1,.1 .3,-1.4 -1.2,-1.4 -.1,-3.5 -.8,.9 .7,2.9 -.6,.1 -.6,-1.9 -.6,-.5 .3,-2.3 1.8,-.1 .3,.7 .3,-1.6 -1.6,-1.7 -.6,-1.6 -.2,2 .9,1.1 -.7,.4 -1,-.8 -1.8,1.3 1.5,.5 .2,2.4 -.3,1.8 .9,-1.3 1.4,2.3 -.4,1.9 h -1.5 v -1.2 l -1.5,-1.2 .5,-3 -1.9,-2.6 2.7,-3 .6,-4.1 h .9 l 1.4,3.2 v -2.6 l 1.2,.3 v -3.3 l -.9,-.8 -1.2,2.5 -1,-3 1.3,-.1 -1.5,-4.9 1.9,-.6 25.4,7.5 31.7,8 23.6,5.5 z m -78.7,-39.4 h .5 l .1,.8 -.5,.3 .1,.6 -.7,.4 -.2,-.9 .5,-.4 z m 5,-4.3 -1.2,1.9 -.1,.8 .4,.2 .5,-.6 1.1,.1 z m -.4,-21.6 .5,.6 1.3,-.3 .2,-1 1.2,-1.8 -1,-.4 -.7,1.6 -.1,-1.6 -1.1,.2 -.7,1.4 z m 3.2,-5.5 .7,1.5 -.9,.2 -.8,.4 -.2,-2.4 z m -2.7,-1.6 -1.1,-.2 .5,1.4 z m -1,2.5 .8,.4 -.4,1.1 1.7,-.5 -.2,-2.2 -.9,-.2 z m -2.7,-.4 .3,2.7 1.6,1.3 .6,-1.9 -1.1,-2.2 z m 1.9,-1.1 -1.1,-1 -.9,.1 1.8,1.5 z m 3.2,-7 h -1.2 v .8 l 1.2,.6 z m -.9,32.5 .4,-2.7 h -1.1 l -.2,1.9 z M84.86,45.05L83.64,44.76L83.13,46.89L84.35,47.18Z M90.49,36.17L89.08,35.93L88.72,38.09L90.14,38.32Z M84.79,42.59L86.77,42.99L87.20,40.85L85.22,40.45Z M94.44,15.36L91.10,14.83L90.75,16.99L94.10,17.52Z M89.36,15.46L89.31,14.94L87.13,15.15L87.18,15.67Z M88.78,11.82L88.45,11.53L87.00,13.17L87.33,13.46Z M89.38,15.72L89.96,15.73L89.99,13.54L89.41,13.53Z M87.47,14.04L86.77,14.21L87.30,16.33L88.01,16.16Z M86.78,13.89L87.12,13.46L85.42,12.09L85.07,12.52Z M93.22,8.00L90.36,5.73L89.00,7.45L91.86,9.72Z"/>
</svg>
