<svg xmlns="http://www.w3.org/2000/svg" viewBox="523.88 95.95 103.73 111.10">
<path fill="black" d="m 611,144 -2.9,.8 .2,2.3 -2.4,3.4 -.2,3.1 .6,.7 .8,-.7 .5,-1.6 2,-1.1 1.6,-4.2 3.5,-1.1 .8,-3.3 .7,-.9 .4,-2.1 1.8,-1.1 v -1.5 l 1,-.9 1.4,.1 v 2 l -1,.1 .5,1.2 -.7,2.2 -.6,.1 -1.2,4.5 -.7,.5 -2.8,7.2 -.3,4.2 .6,2 .1,1.3 -2.4,1.9 .3,1.9 -.9,3.1 .3,1.6 .4,3.7 -1.1,4.1 -1.5,5 1,1.5 -.3,.3 .8,1.7 -.5,1.1 1.1,.9 v 2.7 l 1.3,1.5 -.4,3 .3,4 -45.9,2.8 -1.3,-2.8 -3.3,-.7 -2.7,-1.5 -2,-5.5 .1,-2.5 1.6,-3.3 -.6,-1.1 -2.1,-1.6 -.2,-2.6 -1.1,-4.5 -.2,-3 -2.2,-3 -2.8,-.7 -5.2,-3.6 -.6,-3.3 -6.3,-3.1 -.2,-1.3 h -3.3 l -2.2,-2.6 -2,-1.3 .7,-5.1 -.9,-1.6 .5,-5.4 1,-1.8 -.3,-2.7 -1.2,-1.3 -1.8,-.3 v -1.7 l 2.8,-5.8 5.9,-3.9 -.4,-13 .9,.4 .6,-.5 .1,-1.1 .9,-.6 1.4,1.2 .7,-.1 h 2.6 l 6.8,-2.6 .3,-1 h 1.2 l .7,-1.2 .4,.8 1.8,-.9 1.8,-1.7 .3,.5 1,-1 2.2,1.6 -.8,1.6 -1.2,1.4 .5,1.5 -1.4,1.6 .4,.9 2.3,-1.1 v -1.4 l 3.3,1.9 1.9,.7 1.9,.7 3,3.8 17,3.8 1.4,1 4,.8 .7,.5 2.8,-.2 4.9,.8 1.4,1.5 -1,1 .8,.8 3.8,.7 1.2,1.2 .1,4.4 -1.3,2.8 2,.1 1,-.8 .9,.8 -1.1,3.1 1,1.6 1.2,.3 z m -49.5,-37.3 -.5,.1 -1.5,1.6 .2,.5 1.5,-.6 v -.6 l .9,-.3 z m 1.6,-1.1 -1,.3 -.2,.7 .9,-.1 z m -1.3,-1.6 -.2,.9 h 1.7 l .6,-.4 .1,-1 z m 2.8,-3 -.3,1.9 1.2,-.5 .1,-1.4 z m 58.3,31.9 -2,.3 -.4,1.3 1.3,1.7 z M620.98,136.64L621.73,135.99L620.36,134.43L619.61,135.08Z M560.99,106.26L562.07,105.74L561.17,103.87L560.08,104.40Z M562.12,104.82L562.07,105.52L564.13,105.68L564.19,104.98Z M561.32,105.77L560.99,106.01L562.24,107.67L562.57,107.42Z M564.92,104.03L565.26,103.36L563.42,102.41L563.07,103.08Z"/>
</svg>
