<svg xmlns="http://www.w3.org/2000/svg" viewBox="705.25 221.20 86.90 85.91">
<path fill="black" d="m 723.4,297.5 -.8,1.2 1.5,.7 .1,1.5 4.4,2.3 2.3,-.1 1.9,-1.8 .8,-1.7 3,1.8 5.5,-2.4 .5,-.9 -.8,-.5 .6,-1.4 1.5,1 4.3,-3.1 .7,1.1 2.3,-2 -.1,-1.4 1.5,-1.9 -1.5,-1.2 1,-3.3 3.7,-6.3 -.4,-1.9 2.1,-2.2 -.4,-1.5 1.4,-1.7 .1,-4.7 2.3,.7 1.3,1.9 2.8,.5 1.3,-1.6 2.3,-8.5 2.4,1.1 1,-2.5 .9,-.8 1.4,-1.8 .9,-.8 .5,-2.1 1.2,-.8 -.1,-2.9 .8,-2.3 -.9,-1.6 .2,-.9 10,5.2 .5,-2.3 .4,-1.6 .4,-.7 -.9,-.4 .2,-1.6 -1,-.5 -.2,-.7 h -.7 l -.8,-1.2 .2,-1 -2.6,.4 -2.2,-1.6 -1.4,.3 -.9,1.4 h -1.3 l -1.7,2.9 -3.3,.4 -1.9,-1 -2.6,3.8 -2.2,-.3 -3.1,3.9 -.9,1.6 -1.8,1.6 -1.7,-11.4 -17.4,2.9 -3.2,-19.7 -2.2,1.2 1.4,2.1 -.1,2.2 .6,2 -1.1,3.4 -.1,5.4 -1,3.6 .5,1.1 -.4,2.2 -1.1,.5 -2,3.3 -1.8,2 h -.6 l -1.8,1.7 -1.3,-1.2 -1.5,1.8 -.3,1.2 h -1.3 l -1.3,2.2 .1,2.1 -1,.5 1.4,1.1 v 1.9 l -1,.2 -.7,.8 -1,.5 -.6,-2.1 -1.6,-.5 -1,2.3 -.3,2.2 -1.1,1.3 1.3,3.6 -1.5,.8 -.4,3.5 h -1.5 l -3.2,1.4 -.1,1.1 .6,1 -.6,3.6 1.9,1.6 .8,1.1 1,.6 -.1,.9 4.4,5.6 h 1.4 l 1.5,1.8 1.2,.3 1.4,-.1 z"/>
</svg>
