<svg xmlns="http://www.w3.org/2000/svg" viewBox="0 0 400 600">
<path fill="black" d="M128.163,426.631l60.847-14.912l7.884-2.296l7.325-11.471l13.022-5.897l10.067,15.655l-8.447,18.351l-1.129,5.162l6.761,9.178
	l3.945-2.866h6.195l7.887,9.174l13.523,21.225l12.393,1.719l7.889-3.442l6.195-6.308l-2.815-9.75l-7.325-5.739l-5.069,2.873
	l-3.381-4.593l1.691-1.719l7.321-0.573l6.198,2.866l6.762,8.604l3.379,10.322l1.126,8.605l-14.646,5.161l-13.522,6.881
	l-13.521,16.063l-6.761,5.158v-3.438l8.451-5.165l1.689-6.306l-2.815-10.896l-10.141,5.159l-2.819,5.165l1.693,8.027l-9.575,5.158
	l-9.573-16.058l-11.834-15.49l-5.632-4.012l-20.001,5.445l-17.743,3.732L87.6,492.299l-3.38-20.361l2.254-37.563l18.027-3.158
	L128.163,426.631"/>
</svg>
