<svg xmlns="http://www.w3.org/2000/svg" viewBox="0 0 400 600">
<path fill="black" d="M363.083,159.365l6.763,7.454l7.887,13.193v6.881l-7.324,16.635l-6.762,2.292
	l-11.83,10.897l-16.901,19.501c0,0-2.252,0-4.506,0c-2.255,0-3.383-7.458-3.383-7.458l-6.194,0.573l-3.383,5.165l-8.45,5.159
	l-3.38,5.165l5.635,5.158l-1.691,2.297l-1.689,9.75l-6.761-0.573v-5.735l-1.128-4.588l-5.068,1.147l-6.198-11.471l-7.325,4.588
	l4.51,5.163l1.126,4.016l-2.819,4.585l1.131,10.897l0.563,5.738l-5.636,9.177l-10.141,1.72L269,297.015l-18.591,10.897l-4.509,1.72
	l-5.632-5.159l-10.703,12.616l3.378,11.471l-5.07,4.589l-0.564,15.485l-5.494,27.038l-8.581-4.102l-1.69-10.896l-13.521-4.016
	l-1.128-9.751l-25.353-83.163l-16.607-52.418l8.511-1.223l5.274,1.456v-9.177l2.816-19.5l9.015-16.636l5.07-14.336l-6.761-8.604
	v-21.221l2.819-3.442l2.815-9.749l-0.562-5.162l-0.564-17.208l6.196-17.207l10.142-31.544l7.321-14.912h4.51l4.505,0.573v4.016
	l4.509,8.029l9.577,2.293l2.815-2.867v-3.442l14.083-10.324l6.198-6.308l5.073,0.573l20.843,8.603l6.762,3.443l31.547,106.104
	h20.846l2.818,6.884l0.563,17.202l10.141,8.031h2.815l0.564-1.72l-1.69-4.012L363.083,159.365z"/>
</svg>
