<svg xmlns="http://www.w3.org/2000/svg" viewBox="0 0 400 600">
<path fill="black" d="M217.244,391.914l1.05-5.425l3.8-11.677l-8.86-3.242l-1.69-10.896l-13.521-4.016
	l-1.128-9.751l-25.353-83.163l-16.035-51.599l-3.124-0.013l-2.254,5.731l-2.252-1.719l-3.38-3.439l-5.071,6.881l-3.333,19.464
	l1.086,20.104l6.76,9.75v14.339l-12.957,14.336l-9.014,4.019v4.012l3.941,6.312v30.398l-2.815,32.689l-0.564,17.206l3.38,4.589
	l-0.561,16.058l-1.691,6.309l5.071,7.171l60.282-14.625l7.884-2.296l7.325-11.471L217.244,391.914z"/>
</svg>
