<svg xmlns="http://www.w3.org/2000/svg" viewBox="840.04 141.14 67.32 36.52">
<path fill="black" d="m 899.9,174.2 h 3.4 l .9,-.6 .1,-1.3 -1.9,-1.8 .4,1 -1.5,1.5 h -2.3 l .1,.8 z m -9,1.8 -1.2,-.6 1,-.8 .6,-2.1 1.2,-1 .8,-.2 .6,.9 1.1,.2 .6,-.6 .5,1.9 -1.3,.3 -2.8,.7 z m -34.9,-23.4 18.4,-3.8 1,-1.5 .3,-1.7 1.9,-.6 .5,-1.1 1.7,-1.1 1.3,.3 1.7,3.3 1,.4 1.1,-1.3 .8,1.3 v 1.1 l -3,2.4 .2,.8 -.9,1 .4,.8 -1.3,.3 .9,1.2 -.8,.7 .6,1 .9,-.2 .3,-.8 1.1,.6 h 1.8 l 2.5,2.6 .2,2.6 1.8,.1 .8,1.1 .6,2 1,.7 h 1.9 l 1.9,-.1 .8,-.9 1.6,-1.2 1.1,-.3 -1.2,-2.1 -.3,.9 -1.5,-3.6 h -.8 l -.4,.9 -1.2,-1 1.3,-1.1 1.8,.4 2.3,2.1 1.3,2.7 1.2,3.3 -1,2.8 v -1.8 l -.7,-1 -3.5,2.3 -.9,-.3 -1.6,1 -.1,1.2 -2.2,1.2 -2,2.1 -2,1.9 h -1.2 l 3.3,-3.3 .5,-1.9 -.5,-.6 -.3,-1.3 -.9,-.1 -.1,1.3 -1,1.2 h -1.2 l -.3,1.1 .4,1.2 -1.2,1.1 -1.1,-.2 -.4,1 -1.4,-3 -1.3,-1.1 -2.6,-1.3 -.6,-2.2 h -.8 l -.7,-2.6 -6.5,2 -.1,-.3 -14.9,3.4 v .7 l -.9,.3 -.5,-.7 -10.5,2.4 -.7,-1 .5,-15 z M899.03,173.01L896.04,173.19L896.10,174.23L899.10,174.05Z M893.42,171.26L893.10,170.07L892.09,170.34L892.41,171.53Z"/>
</svg>
