<svg xmlns="http://www.w3.org/2000/svg" viewBox="859.88 31.62 70.73 111.76">
<path fill="black" d="m 875,128.7 .6,4 3.2,2 .8,2.2 2.3,1.4 1.4,-.3 1,-3 -.8,-2.9 1.6,-.9 .5,-2.8 -.6,-1.3 3.3,-1.9 -2.2,-2.3 .9,-2.4 1.4,-2.2 .5,3.2 1.6,-2 1.3,.9 1.2,-.8 v -1.7 l 3.2,-1.3 .3,-2.9 2.5,-.2 2.7,-3.7 v -.7 l -.9,-.5 -.1,-3.3 .6,-1.1 .2,1.6 1,-.5 -.2,-3.2 -.9,.3 -.1,1.2 -1.2,-1.4 .9,-1.4 .6,.1 1.1,-.4 .5,2.8 2,-.3 2.9,.7 v -1 l -1.1,-1.2 1.3,.1 .1,-2.3 .6,.8 .3,1.9 2.1,1.5 .2,-1 .9,-.2 -.3,-.8 .8,-.6 -.1,-1.6 -1.6,-.2 -2,.7 1.4,-1.6 .7,-.8 1.3,-.2 .4,1.3 1.7,1.6 .4,-2.1 2.3,-1.2 -.9,-1.3 .1,-1.7 1.1,.5 h .7 l 1.7,-1.4 .4,-2.3 2.2,.3 .1,-.7 .2,-1.6 .5,1.4 1.5,-1 2.3,-4.1 -.1,-2.2 -1.4,-2 -3,-3.2 h -1.9 l -.8,2.2 -2.9,-3 .3,-.8 v -1.5 l -1.6,-4.5 -.8,-.2 -.7,.4 h -4.8 l -.3,-3.6 -8.1,-26 -7.3,-3.7 -2.9,-.1 -6.7,6.6 -2.7,-1 -1,-3.9 h -2.7 l -6.9,19.5 .7,6.2 -1.7,2.4 -.4,4.6 1.3,3.7 .8,.2 v 1.6 l -1.6,4.5 -1.5,1.4 -1.3,2.2 -.4,7.8 -2.4,-1 -1.5,.4 z m 34.6,-24.7 -1,.8 v 1.3 l .7,-.8 .9,.8 .4,-.5 1.1,.2 -1,-.8 .4,-.8 z m -1.7,2.6 -1,1.1 .5,.4 -.1,1 h 1.1 v -1.8 z m -3,-1.6 .9,1.3 1,.5 .3,-1 v -1.8 l -1.3,-.7 -.4,1.2 z m -1,5 -1.7,-1.7 1.6,-2.4 .8,.3 .2,1.1 1,.8 v 1.1 l -1,1 z M910.38,103.02L910.04,103.83L911.71,104.51L912.04,103.71Z M908.07,105.36L907.37,105.87L908.43,107.33L909.13,106.82Z M907.90,106.55L907.38,106.11L906.22,107.49L906.74,107.93Z M904.86,105.02L904.08,105.63L905.18,107.06L905.96,106.45Z"/>
</svg>
